<svg viewBox="0 0 980 480" xmlns="http://www.w3.org/2000/svg">
  <defs>
    <marker id="readmeArrow" viewBox="0 0 10 10" refX="9" refY="5"
            markerWidth="6" markerHeight="6" orient="auto">
      <path d="M 0 0 L 10 5 L 0 10 z" fill="#666"/>
    </marker>
  </defs>
  <rect x="40" y="60" width="320" height="360" rx="10"
        fill="#f6f8fa" stroke="#d0d7de" stroke-width="2"/>
  <text x="200" y="86" font-size="14" font-weight="bold"
        text-anchor="middle">Waveshare E-Paper ESP32 Driver Board</text>
  <rect x="80" y="110" width="240" height="100" rx="6"
        fill="#fff" stroke="#d0d7de"/>
  <text x="200" y="160" fill="#0969da" font-size="13"
        text-anchor="middle" font-weight="bold">ESP32 onboard</text>
  <text x="200" y="180" fill="#656d76" font-size="11"
        text-anchor="middle">SPI HSPI fissa: 12/13/14/15</text>
  <rect x="100" y="240" width="200" height="40" rx="4"
        fill="#fff" stroke="#bf8700" stroke-width="1.5"/>
  <text x="200" y="265" fill="#bf8700" font-size="12" font-weight="bold"
        text-anchor="middle">FFC interno (24 pin)</text>
  <rect x="100" y="320" width="200" height="80" rx="4"
        fill="#fff" stroke="#d0d7de"/>
  <text x="200" y="340" font-size="11"
        text-anchor="middle">Pin header espansione</text>
  <text x="200" y="358" fill="#8250df" font-size="11"
        text-anchor="middle" font-family="monospace">GPIO 33 → CS_S</text>
  <text x="200" y="374" fill="#8250df" font-size="11"
        text-anchor="middle" font-family="monospace">GPIO 35 → BUSY_S</text>
  <text x="200" y="390" fill="#bf8700" font-size="11"
        text-anchor="middle" font-family="monospace">+ 13/14/26/27 (parallelo)</text>
  <rect x="640" y="60" width="300" height="360" rx="10"
        fill="#f6f8fa" stroke="#d0d7de" stroke-width="2"/>
  <text x="790" y="86" font-size="14" font-weight="bold"
        text-anchor="middle">Pannello SOLUM 12.2"</text>
  <text x="790" y="104" fill="#656d76" font-size="11"
        text-anchor="middle">960 × 768 BWR</text>
  <rect x="660" y="120" width="130" height="280" rx="4"
        fill="#ddf4ff" stroke="#0969da" stroke-width="1.5"/>
  <text x="725" y="145" fill="#0969da" font-size="12" font-weight="bold"
        text-anchor="middle">MASTER</text>
  <text x="725" y="165" fill="#656d76" font-size="11"
        text-anchor="middle">cols 0..479</text>
  <rect x="675" y="200" width="100" height="30" rx="3"
        fill="#fff" stroke="#0969da"/>
  <text x="725" y="220" fill="#0969da" font-size="11"
        text-anchor="middle" font-weight="bold">FFC #1</text>
  <rect x="800" y="120" width="130" height="280" rx="4"
        fill="#fbefff" stroke="#8250df" stroke-width="1.5"/>
  <text x="865" y="145" fill="#8250df" font-size="12" font-weight="bold"
        text-anchor="middle">SLAVE</text>
  <text x="865" y="165" fill="#656d76" font-size="11"
        text-anchor="middle">cols 480..959</text>
  <rect x="815" y="200" width="100" height="30" rx="3"
        fill="#fff" stroke="#8250df"/>
  <text x="865" y="220" fill="#8250df" font-size="11"
        text-anchor="middle" font-weight="bold">FFC #2</text>
  <rect x="400" y="320" width="200" height="110" rx="4"
        fill="#fff8c5" stroke="#bf8700" stroke-dasharray="4 3"/>
  <text x="500" y="345" fill="#bf8700" font-size="11" font-weight="bold"
        text-anchor="middle">FFC breakout esterno</text>
  <text x="500" y="365" fill="#656d76" font-size="10"
        text-anchor="middle">(per FFC #2 — slave)</text>
  <text x="500" y="385" fill="#656d76" font-size="10"
        text-anchor="middle">21-pin 0.5 mm</text>
  <text x="500" y="403" fill="#656d76" font-size="10"
        text-anchor="middle">jumper wire 3.3V</text>
  <text x="500" y="421" fill="#656d76" font-size="10"
        text-anchor="middle">si infila in breadboard</text>
  <line x1="300" y1="260" x2="675" y2="215" stroke="#0969da" stroke-width="2"
        marker-end="url(#readmeArrow)"/>
  <text x="490" y="225" fill="#0969da" font-size="11" font-style="italic"
        text-anchor="middle">cavo FFC diretto (master)</text>
  <line x1="300" y1="358" x2="400" y2="350" stroke="#8250df" stroke-width="1.5"
        stroke-dasharray="4 3" marker-end="url(#readmeArrow)"/>
  <line x1="300" y1="374" x2="400" y2="370" stroke="#8250df" stroke-width="1.5"
        stroke-dasharray="4 3" marker-end="url(#readmeArrow)"/>
  <line x1="300" y1="392" x2="400" y2="395" stroke="#bf8700" stroke-width="1.5"
        stroke-dasharray="4 3" marker-end="url(#readmeArrow)"/>
  <line x1="600" y1="370" x2="815" y2="220" stroke="#8250df" stroke-width="2"
        marker-end="url(#readmeArrow)"/>
  <text x="705" y="305" fill="#8250df" font-size="11" font-style="italic"
        text-anchor="middle">FFC #2 ribbon</text>
</svg>
