<svg viewBox="0 0 980 520" xmlns="http://www.w3.org/2000/svg">
  <defs>
    <marker id="readmeArrow2" viewBox="0 0 10 10" refX="9" refY="5"
            markerWidth="6" markerHeight="6" orient="auto">
      <path d="M 0 0 L 10 5 L 0 10 z" fill="#666"/>
    </marker>
  </defs>
  <rect x="40" y="80" width="280" height="380" rx="10"
        fill="#f6f8fa" stroke="#d0d7de" stroke-width="2"/>
  <text x="180" y="106" font-size="14" font-weight="bold"
        text-anchor="middle">ESP32 Dev Board (DevKitC)</text>
  <rect x="60" y="130" width="240" height="320" rx="6"
        fill="#fff" stroke="#d0d7de"/>
  <text x="180" y="158" fill="#0969da" font-size="12" font-weight="bold"
        text-anchor="middle">PIN HEADER ESP32</text>
  <g font-family="monospace" font-size="11">
    <text x="80"  y="190" fill="#bf8700">GPIO 18 (SCK)</text>
    <text x="80"  y="210" fill="#bf8700">GPIO 23 (MOSI)</text>
    <text x="80"  y="230" fill="#bf8700">GPIO 19 (MISO)</text>
    <text x="80"  y="250" fill="#bf8700">GPIO 27 (DC)</text>
    <text x="80"  y="270" fill="#bf8700">GPIO 26 (RST)</text>
    <text x="80"  y="290" fill="#bf8700">3V3 / GND</text>
    <text x="80"  y="320" fill="#0969da">GPIO 15 (CS_M)</text>
    <text x="80"  y="340" fill="#0969da">GPIO 25 (BUSY_M)</text>
    <text x="80"  y="370" fill="#8250df">GPIO 33 (CS_S)</text>
    <text x="80"  y="390" fill="#8250df">GPIO 35 (BUSY_S)</text>
  </g>
  <text x="180" y="430" fill="#656d76" font-size="10"
        text-anchor="middle">9 GPIO totali</text>
  <rect x="380" y="100" width="180" height="160" rx="6"
        fill="#ddf4ff" stroke="#0969da" stroke-width="1.5"/>
  <text x="470" y="124" fill="#0969da" font-size="12" font-weight="bold"
        text-anchor="middle">FFC Breakout #1</text>
  <text x="470" y="142" fill="#656d76" font-size="11"
        text-anchor="middle">21 pin 0.5 mm — MASTER</text>
  <rect x="400" y="160" width="140" height="30" rx="3"
        fill="#fff" stroke="#0969da"/>
  <text x="470" y="180" fill="#0969da" font-size="11"
        text-anchor="middle" font-weight="bold">connettore FFC</text>
  <text x="470" y="220" font-size="10"
        text-anchor="middle">21 pin → 21 pad DIP 2.54 mm</text>
  <text x="470" y="240" fill="#656d76" font-size="10"
        text-anchor="middle">si infila in breadboard</text>
  <rect x="380" y="290" width="180" height="160" rx="6"
        fill="#fbefff" stroke="#8250df" stroke-width="1.5"/>
  <text x="470" y="314" fill="#8250df" font-size="12" font-weight="bold"
        text-anchor="middle">FFC Breakout #2</text>
  <text x="470" y="332" fill="#656d76" font-size="11"
        text-anchor="middle">21 pin 0.5 mm — SLAVE</text>
  <rect x="400" y="350" width="140" height="30" rx="3"
        fill="#fff" stroke="#8250df"/>
  <text x="470" y="370" fill="#8250df" font-size="11"
        text-anchor="middle" font-weight="bold">connettore FFC</text>
  <text x="470" y="410" font-size="10"
        text-anchor="middle">21 pin → 21 pad DIP 2.54 mm</text>
  <text x="470" y="430" fill="#656d76" font-size="10"
        text-anchor="middle">si infila in breadboard</text>
  <rect x="630" y="80" width="310" height="380" rx="10"
        fill="#f6f8fa" stroke="#d0d7de" stroke-width="2"/>
  <text x="785" y="106" font-size="14" font-weight="bold"
        text-anchor="middle">Pannello SOLUM 12.2"</text>
  <text x="785" y="124" fill="#656d76" font-size="11"
        text-anchor="middle">960 × 768 BWR</text>
  <rect x="650" y="140" width="135" height="300" rx="4"
        fill="#ddf4ff" stroke="#0969da" stroke-width="1.5"/>
  <text x="717" y="165" fill="#0969da" font-size="12" font-weight="bold"
        text-anchor="middle">MASTER</text>
  <text x="717" y="183" fill="#656d76" font-size="11"
        text-anchor="middle">cols 0..479</text>
  <rect x="667" y="220" width="100" height="30" rx="3"
        fill="#fff" stroke="#0969da"/>
  <text x="717" y="240" fill="#0969da" font-size="11"
        text-anchor="middle" font-weight="bold">FFC #1</text>
  <rect x="795" y="140" width="135" height="300" rx="4"
        fill="#fbefff" stroke="#8250df" stroke-width="1.5"/>
  <text x="862" y="165" fill="#8250df" font-size="12" font-weight="bold"
        text-anchor="middle">SLAVE</text>
  <text x="862" y="183" fill="#656d76" font-size="11"
        text-anchor="middle">cols 480..959</text>
  <rect x="812" y="220" width="100" height="30" rx="3"
        fill="#fff" stroke="#8250df"/>
  <text x="862" y="240" fill="#8250df" font-size="11"
        text-anchor="middle" font-weight="bold">FFC #2</text>
  <line x1="300" y1="220" x2="380" y2="180" stroke="#bf8700" stroke-width="1.5"
        marker-end="url(#readmeArrow2)"/>
  <line x1="300" y1="320" x2="380" y2="200" stroke="#0969da" stroke-width="1.5"
        marker-end="url(#readmeArrow2)"/>
  <line x1="300" y1="240" x2="380" y2="370" stroke="#bf8700" stroke-width="1.5"
        marker-end="url(#readmeArrow2)"/>
  <line x1="300" y1="380" x2="380" y2="390" stroke="#8250df" stroke-width="1.5"
        marker-end="url(#readmeArrow2)"/>
  <line x1="540" y1="180" x2="667" y2="235" stroke="#0969da" stroke-width="2"
        marker-end="url(#readmeArrow2)"/>
  <line x1="540" y1="370" x2="812" y2="235" stroke="#8250df" stroke-width="2"
        marker-end="url(#readmeArrow2)"/>
</svg>
